<svg version="1.1" id="Layer_1" xmlns="http://www.w3.org/2000/svg" xmlns:xlink="http://www.w3.org/1999/xlink" x="0px" y="0px"
	 width="100%" viewBox="0 0 2799 1362" enable-background="new 0 0 2799 1362" xml:space="preserve">
<path fill="#000000" opacity="1.000000" stroke="none" 
	d="
M2088.000000,1363.000000 
	C1392.000000,1363.000000 696.500000,1363.000000 1.000000,1363.000000 
	C1.000000,909.000000 1.000000,455.000000 1.000000,1.000000 
	C934.000000,1.000000 1867.000000,1.000000 2800.000000,1.000000 
	C2800.000000,455.000000 2800.000000,909.000000 2800.000000,1363.000000 
	C2562.833252,1363.000000 2325.666748,1363.000000 2088.000000,1363.000000 
M640.983276,290.012604 
	C640.983276,290.012604 641.091370,290.025360 641.206543,289.285065 
	C641.096130,289.061035 640.985779,288.837036 640.552124,288.071411 
	C637.023987,285.057495 633.495789,282.043549 629.538330,278.486969 
	C627.779053,275.866455 627.013306,277.355194 625.724426,279.119202 
	C616.280701,292.044769 606.658081,304.839447 597.181030,317.740845 
	C576.249451,346.235779 555.379395,374.775909 534.467163,403.285065 
	C510.221191,436.338989 485.958405,469.380646 461.699921,502.425385 
	C449.293915,519.324768 436.910492,536.240845 424.465424,553.111450 
	C403.478760,581.561157 382.396851,609.940613 361.455933,638.423889 
	C340.218170,667.310913 319.114594,696.296570 297.930084,725.222778 
	C279.087494,750.951233 260.267181,776.696167 241.339981,802.362305 
	C223.093048,827.105957 204.632614,851.692505 186.426559,876.466125 
	C160.287262,912.034851 134.291092,947.708862 108.252007,983.351196 
	C107.588242,984.259766 107.136940,985.323608 106.586578,986.315125 
	C112.044807,982.634705 116.745255,978.462830 121.271935,974.110229 
	C132.548706,963.267334 143.758591,952.354614 154.972549,941.446411 
	C168.212128,928.567993 181.434738,915.672119 194.651932,902.770752 
	C207.875290,889.863342 221.079773,876.936646 234.298203,864.024292 
	C246.679276,851.929932 259.054779,839.829834 271.456909,827.757141 
	C283.975525,815.570984 296.536133,803.428101 309.055664,791.242920 
	C322.652710,778.009033 336.223602,764.748169 349.805756,751.499023 
	C362.315460,739.295959 374.828094,727.096008 387.333862,714.888916 
	C401.148041,701.404724 414.991577,687.950256 428.756653,674.416077 
	C443.581177,659.840210 458.271393,645.127441 473.126495,630.583069 
	C490.347290,613.722534 507.641754,596.936646 524.985046,580.202087 
	C536.217346,569.364136 547.543762,558.622375 558.919617,547.934998 
	C572.931824,534.770813 586.877502,521.528625 601.157227,508.658905 
	C612.307312,498.609833 623.177979,493.507263 637.568542,502.376221 
	C647.193787,508.308289 656.160034,515.722534 664.247742,523.667908 
	C709.879639,568.496521 755.236084,613.606567 800.533508,658.774109 
	C854.696899,712.782227 908.640869,767.010559 962.802368,821.020630 
	C1010.102112,868.188110 1057.571045,915.186035 1104.967163,962.256836 
	C1117.948730,975.149414 1130.937500,988.034790 1144.516357,1001.271790 
	C1148.024658,1004.516846 1151.532959,1007.761902 1154.985718,1011.010559 
	C1154.985718,1011.010559 1154.999878,1010.956665 1155.095337,1011.476807 
	C1155.372192,1011.679138 1155.649170,1011.881470 1155.960938,1012.030029 
	C1155.960938,1012.030029 1155.897705,1012.040649 1155.974976,1012.637207 
	C1156.395264,1013.046753 1156.815674,1013.456299 1157.155518,1013.866028 
	C1157.155518,1013.866028 1157.161255,1013.785645 1157.332520,1014.260681 
	C1157.586792,1014.471680 1157.841187,1014.682678 1158.595825,1015.334473 
	C1161.492432,1018.433899 1164.389160,1021.533325 1167.591797,1024.960205 
	C1171.146851,1021.098328 1174.459595,1017.499634 1178.258667,1013.652832 
	C1178.434692,1013.341187 1178.610596,1013.029541 1178.786865,1012.820435 
	C1178.786865,1012.820435 1178.684570,1012.812500 1179.256470,1012.572021 
	C1179.515869,1012.043457 1179.775269,1011.514893 1180.044800,1011.032654 
	C1180.044800,1011.032654 1179.997803,1011.038696 1180.682495,1010.953979 
	C1184.457642,1006.618286 1188.232788,1002.282593 1192.737183,998.034363 
	C1194.324585,996.958374 1196.134521,996.105286 1197.467651,994.774536 
	C1263.975586,928.384216 1330.451660,861.961853 1396.911743,795.523499 
	C1468.557251,723.901672 1540.192749,652.269897 1611.815308,580.625183 
	C1681.199707,511.219269 1750.535400,441.764496 1819.957886,372.396759 
	C1833.260010,359.105011 1846.562500,345.786194 1860.421509,333.087463 
	C1872.966187,321.592957 1893.557129,320.405731 1907.744141,329.730591 
	C1928.931030,343.656158 1949.987305,357.781158 1971.047363,371.898468 
	C1994.312012,387.493530 2017.466919,403.252594 2040.765747,418.796112 
	C2060.476318,431.945892 2080.384521,444.799744 2100.095947,457.948395 
	C2123.395020,473.490204 2146.526367,489.283295 2169.824463,504.826263 
	C2189.535645,517.976013 2209.415039,530.873535 2229.158447,543.975220 
	C2253.324219,560.011780 2277.405518,576.176147 2301.562744,592.225952 
	C2321.023682,605.155518 2340.589844,617.926270 2360.023926,630.895691 
	C2383.454346,646.532166 2406.752686,662.366028 2430.186279,677.997864 
	C2449.761230,691.055908 2469.499268,703.869385 2489.072266,716.930420 
	C2512.088135,732.289062 2534.977051,747.838623 2557.970947,763.230591 
	C2580.844727,778.542236 2603.770020,793.777832 2626.692871,809.016235 
	C2649.593994,824.240417 2672.520264,839.426819 2695.708496,854.977173 
	C2695.907227,855.197876 2696.132568,855.386902 2696.721680,856.026917 
	C2697.044189,856.223938 2697.366943,856.420959 2697.689453,856.617981 
	C2697.517090,856.021057 2697.344971,855.424133 2697.041504,854.327698 
	C2696.754639,854.158447 2696.468018,853.989197 2695.937256,853.194519 
	C2669.933105,827.150024 2643.937988,801.096863 2617.922852,775.063232 
	C2582.253906,739.368591 2546.652832,703.605774 2510.868164,668.027649 
	C2478.176025,635.524414 2445.266602,603.239929 2412.479248,570.832520 
	C2403.595703,562.052246 2394.798340,553.184875 2385.977051,544.341919 
	C2354.932617,513.220581 2323.924805,482.062103 2292.844727,450.976501 
	C2266.706787,424.833893 2240.451660,398.808685 2214.312744,372.666870 
	C2182.878418,341.228851 2151.540771,309.693939 2120.108154,278.254364 
	C2094.206543,252.347107 2068.192871,226.551819 2042.291260,200.644821 
	C2010.858154,169.205124 1979.491333,137.699402 1948.093994,106.223892 
	C1935.394653,93.492783 1922.679443,80.777512 1909.993042,68.033371 
	C1900.369873,58.366570 1890.781128,48.665493 1880.368408,38.164242 
	C1879.310791,39.743805 1878.581909,40.832253 1877.196045,42.036137 
	C1873.469238,45.833588 1869.742432,49.631039 1865.523804,53.877888 
	C1865.319336,54.256477 1865.114990,54.635067 1865.010376,55.009632 
	C1865.010376,55.009632 1865.006836,54.909843 1864.364868,55.070057 
	C1864.053589,55.381954 1863.742310,55.693855 1863.426147,55.963264 
	C1863.426147,55.963264 1863.394043,55.922451 1862.842773,56.492558 
	C1846.631714,72.245346 1830.290771,87.867172 1814.243042,103.784607 
	C1794.859131,123.010979 1775.830811,142.595718 1756.448608,161.823837 
	C1739.570312,178.567993 1722.296631,194.913574 1705.411743,211.651291 
	C1686.728149,230.172180 1668.390869,249.042252 1649.712036,267.567963 
	C1632.591553,284.548065 1615.107544,301.161621 1597.983032,318.137848 
	C1579.061157,336.895874 1560.462402,355.979797 1541.544312,374.741730 
	C1524.420776,391.723816 1506.956543,408.362305 1489.823364,425.334778 
	C1467.815552,447.136078 1446.031860,469.163361 1424.063843,491.004944 
	C1414.163086,500.848602 1403.957520,510.385712 1394.052612,520.225464 
	C1376.562622,537.600769 1359.266479,555.171387 1341.760376,572.530212 
	C1323.089966,591.043579 1304.241333,609.377075 1285.527100,627.846375 
	C1275.447144,637.794250 1265.525757,647.902588 1255.463379,657.868530 
	C1227.064209,685.995789 1198.621460,714.079041 1170.212158,742.196167 
	C1159.316528,752.979736 1148.478394,763.821533 1137.584839,774.607300 
	C1133.941772,778.214294 1131.419800,778.216125 1127.846558,774.679077 
	C1110.108276,757.120178 1092.324219,739.606873 1074.674316,721.959412 
	C1058.909302,706.196411 1043.371460,690.206055 1027.600464,674.449036 
	C1007.468018,654.334534 987.140930,634.414673 967.012085,614.296509 
	C949.475769,596.769470 932.165222,579.016602 914.632263,561.486206 
	C896.392822,543.249512 877.944397,525.221741 859.702820,506.987213 
	C843.464417,490.755035 827.499329,474.248444 811.195862,458.082611 
	C798.806458,445.797760 785.895752,434.037842 773.533997,421.726135 
	C748.771912,397.064606 724.243042,372.169128 699.586670,347.401276 
	C682.794434,330.533142 665.955750,313.711090 649.115295,296.891052 
	C647.708252,295.485779 646.129211,294.252777 644.633606,292.986023 
	C644.633606,292.986023 644.570129,293.005585 644.123352,292.502777 
	C643.750183,292.303925 643.377075,292.105072 643.013123,291.986908 
	C643.013123,291.986908 643.093750,291.977142 643.070312,291.338501 
	C642.721375,291.192993 642.372437,291.047516 642.021790,290.978058 
	C642.021790,290.978058 642.097839,290.978821 642.150574,290.303284 
	C641.765503,290.170349 641.380493,290.037415 640.983276,290.012604 
M635.356812,828.673706 
	C637.639099,829.022095 639.920227,829.664246 642.203796,829.672913 
	C662.868469,829.751343 683.533569,829.724976 704.198547,829.715454 
	C710.338257,829.712646 710.703064,829.376831 710.710022,823.227417 
	C710.733093,802.895752 710.619080,782.563232 710.798279,762.233154 
	C710.836487,757.895935 709.497131,756.434326 705.089233,756.471985 
	C683.592590,756.656067 662.092224,756.679077 640.596313,756.457031 
	C635.951782,756.409058 634.619751,757.829712 634.659851,762.426880 
	C634.847534,783.922302 634.696533,805.420715 634.443481,827.186279 
	C634.586243,827.468872 634.729004,827.751526 635.356812,828.673706 
M609.799927,828.732971 
	C610.242126,827.022888 611.061768,825.314453 611.069214,823.602478 
	C611.157959,802.944458 611.150757,782.285828 611.077759,761.627686 
	C611.072327,760.088745 610.369934,758.552368 609.811035,756.723633 
	C609.494446,756.705200 609.177856,756.686707 607.944946,756.581726 
	C586.278687,756.572693 564.612488,756.562134 542.946228,756.555481 
	C534.676392,756.552979 534.198242,756.996765 534.188293,765.221313 
	C534.166382,783.387695 534.156067,801.554138 534.215332,819.720337 
	C534.222290,821.856812 534.205505,824.231873 535.100464,826.053833 
	C535.862000,827.604065 537.916321,829.547424 539.409058,829.556213 
	C562.232605,829.691650 585.057983,829.537659 608.319397,829.496338 
	C608.623291,829.440247 608.866028,829.287109 609.799927,828.732971 
M1775.470215,639.159241 
	C1775.628174,639.453308 1775.786133,639.747314 1776.335449,640.757751 
	C1778.177856,641.250061 1780.018677,642.164673 1781.862793,642.171143 
	C1808.186279,642.264221 1834.510864,642.139099 1860.833374,642.325378 
	C1865.395020,642.357666 1866.985840,640.971191 1866.958252,636.379578 
	C1866.806885,611.222961 1866.805420,586.064453 1866.960205,560.907837 
	C1866.988159,556.361633 1865.531372,554.849731 1860.900635,554.883179 
	C1834.744751,555.072266 1808.586914,554.970398 1782.429688,554.977905 
	C1776.355957,554.979614 1775.588745,555.631287 1775.581665,561.881653 
	C1775.552368,587.538086 1775.613770,613.194641 1775.470215,639.159241 
M844.689636,970.954407 
	C844.487915,967.972961 844.039795,964.983032 844.141724,962.011963 
	C844.298706,957.435791 841.673828,955.665100 837.766602,955.348999 
	C834.134705,955.055115 831.703247,958.018005 831.902039,962.382080 
	C832.567749,976.998535 833.495972,991.604492 834.023621,1006.225281 
	C834.839417,1028.831177 835.327576,1051.448975 836.146729,1074.054688 
	C836.315613,1078.715576 834.701660,1081.482544 830.363342,1083.282959 
	C807.181458,1092.903809 784.247803,1103.150757 760.872864,1112.270020 
	C741.313049,1119.900757 721.954163,1127.806641 703.655212,1138.157104 
	C699.168152,1140.695068 694.711365,1143.361694 689.994080,1145.398071 
	C684.740784,1147.665894 681.161072,1145.368530 681.029480,1140.079346 
	C680.644531,1124.613037 680.379150,1109.143677 679.991333,1093.677490 
	C679.716248,1082.709106 679.376831,1071.741455 678.952454,1060.777832 
	C678.721375,1054.806030 678.307739,1048.839600 677.881958,1042.877441 
	C676.628784,1025.329712 675.289612,1007.788147 674.061462,990.238770 
	C673.365967,980.302185 672.673645,970.360962 672.279175,960.409912 
	C672.106873,956.062866 670.045715,953.814758 666.016052,953.608521 
	C663.104614,953.459473 659.967773,958.670532 660.283691,962.366272 
	C660.609009,966.171326 660.990234,969.977966 661.121460,973.791626 
	C661.304626,979.117554 661.002808,984.471008 661.394775,989.776733 
	C662.483276,1004.512878 664.011475,1019.217651 665.008057,1033.959106 
	C665.915527,1047.381958 666.474365,1060.832275 666.970764,1074.278442 
	C667.743530,1095.210327 668.307861,1116.149658 669.023010,1137.083740 
	C669.158752,1141.057983 669.599182,1145.021484 669.873535,1148.991699 
	C670.210022,1153.860107 670.360657,1158.487183 666.223999,1162.369019 
	C663.471191,1164.952271 662.977966,1167.944702 667.311218,1170.390259 
	C669.017578,1171.353149 670.605225,1173.892822 670.835632,1175.878174 
	C672.116089,1186.915161 673.159668,1197.989258 673.912354,1209.075684 
	C675.070801,1226.140259 675.947693,1243.224243 676.907349,1260.302002 
	C677.923340,1278.384033 678.893799,1296.468750 679.889893,1314.552002 
	C680.158752,1319.432495 683.228394,1323.111572 686.885376,1322.591553 
	C691.592346,1321.922363 692.491333,1318.528442 692.125732,1314.450439 
	C691.368774,1306.006348 690.324036,1297.576294 689.910706,1289.115479 
	C688.766907,1265.705444 688.122253,1242.269287 686.813416,1218.869629 
	C686.035278,1204.959351 684.259766,1191.107788 683.160278,1177.211792 
	C682.599426,1170.123535 681.944397,1163.385864 689.635864,1158.388184 
	C712.699341,1143.401855 737.898865,1133.073364 763.248474,1122.932983 
	C783.948303,1114.652588 804.645752,1106.353149 825.161926,1097.633179 
	C833.015747,1094.295166 836.152039,1095.673340 836.058716,1104.152466 
	C835.798584,1127.792480 835.323608,1151.430420 835.174805,1175.070801 
	C835.121521,1183.541992 835.631165,1192.024902 836.113586,1200.489258 
	C836.689819,1210.600708 837.491394,1220.699707 838.232849,1230.801270 
	C839.471375,1247.674194 840.763428,1264.543091 841.971252,1281.418091 
	C842.161194,1284.071899 841.833252,1286.767212 842.083252,1289.411255 
	C842.552795,1294.376831 847.896912,1296.959839 851.606689,1293.770996 
	C853.067627,1292.515137 853.973755,1289.724121 853.880615,1287.689453 
	C853.038208,1269.283081 851.966064,1250.886475 850.859253,1232.493164 
	C850.301147,1223.217529 849.268555,1213.964355 848.922485,1204.683472 
	C848.426758,1191.389771 848.006775,1178.074951 848.204163,1164.778687 
	C848.455627,1147.836060 849.536560,1130.906982 849.893860,1113.964355 
	C850.054749,1106.338379 849.471985,1098.684204 848.955750,1091.061157 
	C848.607117,1085.913818 850.880615,1082.200439 854.990540,1079.831055 
	C869.768738,1071.311035 880.239075,1058.507324 890.284180,1045.201294 
	C892.312073,1042.515137 893.052124,1039.905884 889.968140,1037.953857 
	C886.972778,1036.057861 883.722168,1036.048950 880.965942,1039.007935 
	C873.631287,1046.881348 866.379517,1054.843140 858.740601,1062.412476 
	C857.191406,1063.947510 853.624084,1065.032471 851.829834,1064.289795 
	C850.016724,1063.539062 848.313904,1060.315430 848.182556,1058.079956 
	C847.509766,1046.631470 847.438232,1035.149292 847.009033,1023.684387 
	C846.362427,1006.411255 845.593506,989.142700 844.689636,970.954407 
M364.260620,1081.226807 
	C360.585541,1069.992310 357.213013,1058.647827 353.173492,1047.546021 
	C344.299042,1023.155945 335.060760,998.898499 326.034973,974.563171 
	C324.185394,969.576294 322.814423,964.406677 320.850677,959.469238 
	C319.427704,955.891479 316.357117,954.729553 312.652527,955.721741 
	C308.991577,956.702332 308.830566,959.179749 309.798920,962.353943 
	C310.956390,966.148132 311.425629,970.176636 312.807526,973.873901 
	C321.837891,998.033936 331.546631,1021.952881 340.048340,1046.294800 
	C350.856293,1077.240112 360.519287,1108.583252 371.074524,1139.619385 
	C379.271729,1163.721924 387.973022,1187.655640 396.647522,1211.592773 
	C404.697296,1233.805786 412.894165,1255.967407 421.279236,1278.055664 
	C423.573212,1284.098633 426.267944,1290.119141 429.717468,1295.554199 
	C432.717224,1300.280762 436.823608,1304.502930 443.460480,1303.930054 
	C449.522614,1303.406860 450.353485,1298.082153 451.975800,1294.035645 
	C458.229614,1278.436646 464.011078,1262.649170 470.079865,1246.975098 
	C482.212982,1215.638184 494.803955,1184.472290 506.485504,1152.968628 
	C517.705872,1122.708862 527.963867,1092.093140 538.748169,1061.670410 
	C543.864075,1047.238159 548.745544,1032.695068 554.585754,1018.554199 
	C562.325500,999.814087 570.888550,981.413635 579.120544,962.877319 
	C582.750793,954.702942 586.529602,946.592957 590.046631,938.370544 
	C591.260254,935.533264 591.932739,932.451294 587.848938,930.958496 
	C583.906433,929.517456 580.979858,930.608093 579.202698,934.421570 
	C577.024048,939.096436 574.877319,943.787659 572.809143,948.512207 
	C563.071228,970.757324 552.603943,992.721191 543.829773,1015.341125 
	C531.377136,1047.444092 520.114929,1080.010742 508.470428,1112.424683 
	C501.836304,1130.891602 495.862976,1149.605225 488.859711,1167.927856 
	C478.881104,1194.035156 468.199615,1219.873169 457.880768,1245.850952 
	C453.704712,1256.364380 449.847870,1267.007935 445.465332,1277.432495 
	C444.665436,1279.335205 442.076324,1281.559204 440.223480,1281.642700 
	C438.386292,1281.725342 436.277405,1279.461548 434.599304,1277.893433 
	C433.707306,1277.059814 433.423615,1275.539185 432.953918,1274.295288 
	C425.727020,1255.154175 418.396942,1236.050903 411.328552,1216.851440 
	C402.419891,1192.652954 393.482788,1168.459961 385.017303,1144.104980 
	C377.857788,1123.507202 371.352692,1102.682007 364.260620,1081.226807 
M1867.165771,763.405151 
	C1867.394897,761.439453 1867.812744,759.474731 1867.822510,757.507996 
	C1867.883545,745.192017 1867.853516,732.875671 1867.853271,720.559448 
	C1867.853027,709.075439 1867.927856,697.590576 1867.806641,686.107849 
	C1867.769775,682.611084 1867.666992,679.000061 1862.413818,679.017517 
	C1835.451538,679.106995 1808.488892,679.074280 1781.526367,679.041687 
	C1778.065552,679.037476 1776.391479,680.316467 1776.403931,684.047485 
	C1776.490356,709.844727 1776.495117,735.642456 1776.402100,761.439575 
	C1776.388184,765.306213 1777.833374,766.703430 1781.699219,766.688538 
	C1808.328369,766.586060 1834.958496,766.681702 1861.587280,766.532898 
	C1863.397095,766.522827 1865.198853,765.042053 1867.165771,763.405151 
M1893.024536,614.500000 
	C1893.024536,621.164429 1893.015503,627.828918 1893.027222,634.493347 
	C1893.038330,640.836426 1893.897705,642.122925 1900.002563,642.156921 
	C1925.826172,642.300659 1951.651245,642.263550 1977.475464,642.184998 
	C1981.881714,642.171570 1984.342163,640.346680 1984.296143,635.158081 
	C1984.074585,610.168457 1984.113037,585.175171 1984.268799,560.184570 
	C1984.298950,555.358765 1982.550171,553.878845 1977.795288,553.912537 
	C1951.805420,554.096313 1925.813354,553.993774 1899.822144,554.004700 
	C1893.786377,554.007202 1893.038940,554.768372 1893.031738,561.017639 
	C1893.011597,578.511780 1893.024536,596.005859 1893.024536,614.500000 
M1984.936401,681.028625 
	C1982.859253,680.371399 1980.784790,679.152710 1978.704346,679.142273 
	C1952.721191,679.011963 1926.737061,679.051147 1900.753174,679.061279 
	C1894.843262,679.063538 1894.016479,679.838989 1894.011841,685.577759 
	C1893.991577,710.395691 1894.075439,735.213928 1893.939209,760.031128 
	C1893.913574,764.700317 1895.568848,766.693848 1900.318359,766.677368 
	C1926.635132,766.585815 1952.952271,766.589050 1979.269043,766.683655 
	C1983.447266,766.698669 1985.247192,765.331238 1985.221558,760.888977 
	C1985.069946,734.573059 1985.124268,708.255859 1984.936401,681.028625 
M1415.494385,1223.026489 
	C1400.622070,1232.628418 1385.203247,1240.942871 1367.814209,1245.277710 
	C1352.073364,1249.201782 1336.364380,1252.725830 1320.035400,1249.877197 
	C1302.522949,1246.822021 1289.742432,1237.848389 1281.498291,1221.512573 
	C1274.292114,1207.233521 1271.494141,1192.336182 1271.198730,1176.745605 
	C1270.712158,1151.064331 1277.665405,1126.650024 1285.511475,1102.630859 
	C1289.297852,1091.039917 1295.767578,1080.319702 1301.089478,1069.237427 
	C1310.409668,1049.828979 1323.474731,1032.922241 1338.233887,1017.591919 
	C1360.981445,993.963989 1386.850952,974.260681 1416.657349,959.992920 
	C1439.520508,949.048706 1463.395630,942.637268 1488.811646,943.212219 
	C1496.217651,943.379700 1503.618408,944.803223 1508.599365,951.789612 
	C1511.297485,955.574158 1516.847046,955.594055 1519.611694,952.588440 
	C1521.744141,950.270203 1520.923950,945.714233 1516.701416,943.375366 
	C1511.700806,940.605530 1506.163696,938.365417 1500.585815,937.155945 
	C1481.297241,932.973694 1462.227051,935.870911 1443.420166,940.457092 
	C1423.660889,945.275452 1405.990723,955.213318 1388.300293,964.737488 
	C1366.462524,976.494507 1347.946411,992.943054 1330.577271,1010.329529 
	C1319.494385,1021.423584 1310.061890,1034.290161 1300.726196,1046.977783 
	C1286.077637,1066.885986 1277.198486,1089.760742 1269.203003,1112.909302 
	C1263.914551,1128.220093 1261.153687,1144.048950 1260.474731,1160.338989 
	C1259.745483,1177.837158 1258.550537,1195.211914 1264.802734,1212.121094 
	C1269.187134,1223.979004 1274.431396,1235.581055 1284.474731,1243.394409 
	C1297.360474,1253.419189 1312.728516,1258.945679 1329.037231,1258.561279 
	C1342.208618,1258.250977 1355.504517,1256.057373 1368.406494,1253.180298 
	C1387.161743,1248.998291 1404.415039,1241.137329 1421.009644,1231.008301 
	C1438.269897,1220.473145 1452.682251,1207.306885 1465.049072,1191.760376 
	C1475.586182,1178.514282 1483.151611,1163.573730 1486.980713,1146.876831 
	C1488.334106,1140.974976 1487.722778,1138.733887 1483.144409,1137.578003 
	C1478.796143,1136.480225 1475.869141,1138.735718 1474.475342,1143.995239 
	C1472.818481,1150.247437 1471.762085,1156.800659 1469.127197,1162.627319 
	C1457.648438,1188.009766 1439.749512,1207.907837 1415.494385,1223.026489 
M1785.166016,1117.522949 
	C1783.022461,1113.413452 1780.553711,1109.438110 1778.793457,1105.170654 
	C1772.305054,1089.439697 1760.375366,1078.326660 1745.942871,1071.004639 
	C1724.171631,1059.959717 1700.931030,1059.652344 1678.241333,1068.715576 
	C1660.816406,1075.675659 1646.297363,1086.451050 1639.135254,1104.911255 
	C1634.656494,1116.455200 1628.151367,1127.122925 1626.023193,1139.695190 
	C1624.375366,1149.429810 1622.152954,1150.601318 1614.516602,1151.105469 
	C1611.357544,1151.314209 1606.811768,1150.943115 1606.768555,1155.373047 
	C1606.724365,1159.906128 1611.162231,1158.780884 1614.156738,1159.046631 
	C1619.968994,1159.562500 1621.877686,1162.615723 1621.474976,1168.460938 
	C1621.008667,1175.229614 1620.673218,1182.176025 1621.656738,1188.842163 
	C1623.919800,1204.181274 1628.541504,1218.698486 1636.244385,1232.483032 
	C1651.351929,1259.519287 1680.472412,1275.391968 1710.799683,1271.696777 
	C1737.228882,1268.476318 1761.522339,1258.379150 1783.399658,1243.077026 
	C1794.094238,1235.596802 1798.569702,1224.172241 1801.245117,1211.885986 
	C1802.062256,1208.133057 1799.968994,1206.635742 1796.858643,1206.045654 
	C1791.939331,1205.112061 1789.572754,1206.519775 1788.301758,1212.643188 
	C1784.952026,1228.781738 1774.918091,1239.714111 1760.917969,1246.796021 
	C1747.312500,1253.678345 1733.336182,1259.870239 1718.116089,1262.926147 
	C1701.323486,1266.297852 1685.542725,1264.721924 1671.736084,1254.316895 
	C1663.986694,1248.476807 1656.291260,1241.891235 1650.641602,1234.133911 
	C1645.278320,1226.769653 1642.183838,1217.605469 1638.856689,1208.938965 
	C1633.212402,1194.237915 1634.756470,1178.738403 1635.203247,1163.470459 
	C1635.254150,1161.727295 1638.313843,1158.891113 1640.291748,1158.584839 
	C1650.128784,1157.061768 1660.048462,1155.878174 1669.981689,1155.221069 
	C1681.424561,1154.463867 1692.917358,1154.497437 1704.379272,1153.983032 
	C1725.625488,1153.029663 1746.864624,1151.916260 1768.108154,1150.903198 
	C1770.601685,1150.784302 1773.109131,1150.964722 1775.603516,1150.856689 
	C1784.443359,1150.473633 1790.775146,1144.211914 1789.888184,1135.544800 
	C1789.288086,1129.681885 1787.020508,1123.989380 1785.166016,1117.522949 
M2245.791748,1135.813232 
	C2243.197998,1134.677124 2240.312012,1133.939697 2238.083740,1132.305420 
	C2235.206055,1130.195190 2231.225098,1127.719482 2230.590820,1124.781494 
	C2228.888916,1116.896851 2229.190674,1108.683105 2235.243408,1102.212891 
	C2245.120850,1091.654053 2255.898193,1082.299927 2270.554199,1079.014160 
	C2278.316406,1077.273804 2286.077881,1075.214478 2293.954590,1074.364502 
	C2309.935547,1072.639893 2324.931641,1076.267334 2338.957031,1084.194458 
	C2341.438477,1085.597046 2344.499268,1086.373901 2347.347900,1086.550049 
	C2348.656006,1086.631104 2350.470215,1084.771729 2351.278809,1083.350586 
	C2351.568604,1082.841187 2349.829346,1080.558350 2348.584717,1079.900269 
	C2342.712158,1076.794922 2336.937988,1073.207886 2330.678955,1071.180908 
	C2303.412842,1062.350830 2276.745361,1064.782593 2251.434814,1077.915405 
	C2240.312744,1083.686279 2229.285645,1090.130493 2222.180176,1101.319580 
	C2211.685791,1117.844849 2217.845703,1136.335815 2236.492920,1142.164062 
	C2245.015625,1144.827637 2253.929443,1146.360596 2262.751709,1147.918457 
	C2279.263672,1150.833984 2296.015869,1152.615356 2312.331787,1156.341919 
	C2325.998047,1159.463257 2338.591309,1165.508057 2348.774658,1175.972778 
	C2362.407471,1189.982056 2359.161133,1207.935303 2348.175049,1219.244873 
	C2333.174805,1234.686279 2313.910645,1241.755005 2293.716553,1246.866089 
	C2274.846924,1251.642212 2255.768311,1251.999023 2236.290771,1251.257324 
	C2216.386719,1250.499146 2197.783936,1246.234009 2179.737549,1238.546265 
	C2177.166260,1237.450806 2174.520752,1235.211670 2173.164307,1232.796997 
	C2164.303955,1217.025146 2169.183105,1197.929565 2189.684326,1193.039917 
	C2193.399658,1192.153931 2197.247559,1191.804810 2200.937500,1190.838623 
	C2204.067627,1190.019165 2209.363281,1190.320312 2208.496582,1185.665283 
	C2207.670166,1181.226074 2202.680908,1182.841553 2199.485107,1183.307373 
	C2193.732910,1184.145996 2188.084961,1185.682739 2182.377686,1186.850464 
	C2169.552979,1189.474365 2161.554199,1197.362305 2157.684082,1209.617432 
	C2153.357910,1223.315308 2157.407471,1235.794678 2170.027832,1242.482300 
	C2179.323242,1247.408081 2189.610596,1250.623291 2199.693359,1253.861694 
	C2212.777588,1258.064087 2226.377441,1259.310669 2240.103760,1259.041504 
	C2253.030273,1258.787842 2266.021240,1259.216309 2278.860596,1258.021484 
	C2288.043945,1257.166748 2297.024414,1254.128540 2306.094482,1252.061646 
	C2328.269531,1247.008423 2347.481934,1236.899292 2362.339600,1219.267700 
	C2370.322998,1209.793823 2374.634521,1192.488403 2366.477295,1181.256104 
	C2358.942871,1170.880859 2349.989990,1161.790161 2338.085449,1156.855347 
	C2319.113281,1148.990234 2299.252441,1144.213989 2278.783936,1141.776123 
	C2267.959717,1140.486816 2257.278564,1137.996704 2245.791748,1135.813232 
M1968.523193,1259.850708 
	C1974.995117,1259.550537 1981.508179,1259.612549 1987.931641,1258.884766 
	C2010.909912,1256.281982 2033.233154,1251.053467 2053.531494,1239.555298 
	C2065.272949,1232.903931 2076.239990,1225.098633 2082.286865,1212.216309 
	C2087.576660,1200.946411 2089.020264,1190.118774 2080.707275,1179.403931 
	C2073.540771,1170.167114 2065.244385,1162.224487 2054.623535,1157.434204 
	C2035.365112,1148.748169 2014.909546,1144.239868 1993.972534,1141.895752 
	C1981.253662,1140.471680 1968.558228,1139.344727 1956.598633,1133.988159 
	C1948.218994,1130.235107 1943.111084,1123.296875 1945.376953,1114.786621 
	C1946.821289,1109.361084 1949.419678,1103.614258 1953.163452,1099.538818 
	C1969.149902,1082.136719 1990.040527,1075.434692 2013.020020,1074.030396 
	C2028.656250,1073.074707 2042.853394,1077.941406 2056.528320,1084.878906 
	C2057.713135,1085.479980 2059.057861,1086.744873 2060.063232,1086.519165 
	C2062.280273,1086.021973 2064.327881,1084.769653 2066.444580,1083.825439 
	C2065.458252,1082.413696 2064.765381,1080.581177 2063.439697,1079.655640 
	C2051.372314,1071.229980 2037.544678,1066.994629 2023.203491,1066.292603 
	C2001.306763,1065.220581 1980.055054,1068.817139 1961.142700,1081.066895 
	C1950.388428,1088.032715 1939.720947,1094.899902 1934.603149,1107.803833 
	C1930.569336,1117.974731 1933.478882,1130.825928 1942.523926,1137.206177 
	C1953.160278,1144.708984 1965.808716,1145.642212 1977.994751,1147.863892 
	C1994.325317,1150.840942 2010.924805,1152.545288 2027.074585,1156.252563 
	C2040.803101,1159.404419 2053.227539,1165.266357 2063.928467,1175.709106 
	C2079.710693,1191.110718 2074.000977,1210.354126 2061.868408,1221.397827 
	C2049.040527,1233.074341 2033.571411,1240.521851 2016.783325,1245.008057 
	C1995.572021,1250.676147 1974.201538,1252.577393 1952.089600,1251.278931 
	C1933.334595,1250.177734 1915.465820,1247.159912 1898.321899,1239.792969 
	C1894.933228,1238.336670 1891.094727,1236.415527 1889.061523,1233.567749 
	C1878.024902,1218.109253 1886.757690,1196.676880 1905.256836,1192.975098 
	C1909.821045,1192.061768 1914.389526,1191.168701 1918.947266,1190.223877 
	C1921.375000,1189.720459 1924.707642,1189.381836 1923.762939,1186.053711 
	C1923.350342,1184.600342 1919.848633,1182.842041 1918.089111,1183.151367 
	C1909.110474,1184.730957 1899.881104,1185.975586 1891.417969,1189.147705 
	C1877.333862,1194.426880 1871.781006,1206.903076 1871.775513,1219.933228 
	C1871.769897,1233.537476 1880.418823,1241.554199 1892.405396,1246.556641 
	C1916.469727,1256.599487 1941.735107,1259.698853 1968.523193,1259.850708 
M534.181335,703.498047 
	C534.181763,708.323303 534.243835,713.149536 534.164917,717.973450 
	C534.090759,722.504822 535.430725,724.754639 540.743835,724.678284 
	C561.870850,724.374451 583.007080,724.381104 604.134338,724.676514 
	C609.298889,724.748657 611.090393,722.604309 611.100281,718.091431 
	C611.144592,697.958618 611.142395,677.825562 611.095764,657.692749 
	C611.085083,653.080200 609.047729,651.142822 604.001709,651.211609 
	C583.373413,651.492920 562.739014,651.327515 542.106873,651.329407 
	C534.384338,651.330139 534.192078,651.516663 534.184937,659.570740 
	C534.172241,673.880127 534.181335,688.189514 534.181335,703.498047 
M709.763123,687.500061 
	C709.762451,677.017944 709.685486,666.535034 709.801208,656.054199 
	C709.843689,652.206787 708.748779,650.302429 704.414246,650.334534 
	C682.619324,650.495850 660.822388,650.463196 639.026672,650.374451 
	C635.313660,650.359314 633.692993,651.407166 633.726074,655.491272 
	C633.895752,676.454102 633.873291,697.419495 633.740540,718.382812 
	C633.716614,722.151245 634.709167,723.734558 638.776367,723.706665 
	C660.737854,723.556091 682.701416,723.556946 704.662903,723.707214 
	C708.663635,723.734558 709.882996,722.259583 709.818787,718.447998 
	C709.650757,708.467896 709.762695,698.483093 709.763123,687.500061 
M1490.102295,1278.272339 
	C1489.473267,1272.003296 1487.648071,1265.578613 1488.439819,1259.494507 
	C1490.795288,1241.397705 1493.923462,1223.387207 1497.256592,1205.437256 
	C1499.312500,1194.366333 1501.127319,1183.019775 1505.127441,1172.593750 
	C1511.491699,1156.005371 1519.646729,1140.107544 1526.927612,1123.865356 
	C1529.849121,1117.348022 1532.869873,1110.826904 1535.101929,1104.062256 
	C1537.450073,1096.945801 1534.604492,1093.737793 1527.077637,1094.059326 
	C1525.607056,1094.122314 1524.125732,1094.529541 1522.700073,1094.949951 
	C1511.206909,1098.338867 1499.841919,1102.244141 1488.215942,1105.083374 
	C1466.742554,1110.327637 1445.159668,1115.148315 1423.544678,1119.782715 
	C1402.903198,1124.208252 1382.167236,1128.194458 1361.462646,1132.323120 
	C1356.415405,1133.329468 1351.259155,1133.872437 1346.294556,1135.169556 
	C1344.391235,1135.666870 1342.883423,1137.677002 1341.195312,1138.997681 
	C1342.932373,1140.267944 1344.521729,1141.903076 1346.456055,1142.686279 
	C1347.853516,1143.252075 1349.749268,1142.895264 1351.354736,1142.591064 
	C1366.050537,1139.806519 1380.760498,1137.084839 1395.410034,1134.071655 
	C1420.975708,1128.813477 1446.557739,1123.612549 1472.020142,1117.885986 
	C1484.837402,1115.003174 1497.379883,1110.913818 1510.116577,1107.642700 
	C1512.104980,1107.131958 1515.364990,1107.308716 1516.429077,1108.548096 
	C1517.743530,1110.078979 1517.522217,1113.044678 1517.660767,1115.408203 
	C1517.712402,1116.289429 1516.925781,1117.229980 1516.489868,1118.128174 
	C1512.281006,1126.802979 1507.604858,1135.286011 1503.960327,1144.191284 
	C1498.556763,1157.394287 1492.665283,1170.588257 1489.188721,1184.343750 
	C1484.187988,1204.129395 1480.918091,1224.372192 1477.387939,1244.503662 
	C1474.623047,1260.271118 1474.677246,1275.999756 1480.893677,1291.185303 
	C1482.527710,1295.177490 1483.572876,1299.489258 1485.705566,1303.182251 
	C1490.173584,1310.918457 1494.976562,1318.485474 1500.066284,1325.827759 
	C1502.382324,1329.168701 1505.995361,1328.468506 1508.962036,1326.298950 
	C1512.106812,1323.999390 1510.787354,1321.668335 1508.837646,1319.093628 
	C1499.768066,1307.117676 1493.746094,1293.682495 1490.102295,1278.272339 
M104.136581,989.170715 
	C104.563087,989.024597 104.989601,988.878479 105.416107,988.732361 
	C105.025131,988.632935 104.634155,988.533508 104.136581,989.170715 
z"/>
<path fill="#A9ABAE" opacity="1.000000" stroke="none" 
	d="
M2695.435547,854.629822 
	C2672.520264,839.426819 2649.593994,824.240417 2626.692871,809.016235 
	C2603.770020,793.777832 2580.844727,778.542236 2557.970947,763.230591 
	C2534.977051,747.838623 2512.088135,732.289062 2489.072266,716.930420 
	C2469.499268,703.869385 2449.761230,691.055908 2430.186279,677.997864 
	C2406.752686,662.366028 2383.454346,646.532166 2360.023926,630.895691 
	C2340.589844,617.926270 2321.023682,605.155518 2301.562744,592.225952 
	C2277.405518,576.176147 2253.324219,560.011780 2229.158447,543.975220 
	C2209.415039,530.873535 2189.535645,517.976013 2169.824463,504.826263 
	C2146.526367,489.283295 2123.395020,473.490204 2100.095947,457.948395 
	C2080.384521,444.799744 2060.476318,431.945892 2040.765747,418.796112 
	C2017.466919,403.252594 1994.312012,387.493530 1971.047363,371.898468 
	C1949.987305,357.781158 1928.931030,343.656158 1907.744141,329.730591 
	C1893.557129,320.405731 1872.966187,321.592957 1860.421509,333.087463 
	C1846.562500,345.786194 1833.260010,359.105011 1819.957886,372.396759 
	C1750.535400,441.764496 1681.199707,511.219269 1611.815308,580.625183 
	C1540.192749,652.269897 1468.557251,723.901672 1396.911743,795.523499 
	C1330.451660,861.961853 1263.975586,928.384216 1197.467651,994.774536 
	C1196.134521,996.105286 1194.324585,996.958374 1192.474121,997.671997 
	C1193.127808,996.122925 1194.081909,994.963074 1194.956177,993.745789 
	C1312.071289,830.690857 1429.175049,667.627686 1546.291748,504.573822 
	C1654.952026,353.292938 1763.628784,202.023865 1872.272827,50.731159 
	C1874.297119,47.912243 1876.000244,44.862709 1877.853149,41.920753 
	C1878.581909,40.832253 1879.310791,39.743805 1880.368408,38.164242 
	C1890.781128,48.665493 1900.369873,58.366570 1909.993042,68.033371 
	C1922.679443,80.777512 1935.394653,93.492783 1948.093994,106.223892 
	C1979.491333,137.699402 2010.858154,169.205124 2042.291260,200.644821 
	C2068.192871,226.551819 2094.206543,252.347107 2120.108154,278.254364 
	C2151.540771,309.693939 2182.878418,341.228851 2214.312744,372.666870 
	C2240.451660,398.808685 2266.706787,424.833893 2292.844727,450.976501 
	C2323.924805,482.062103 2354.932617,513.220581 2385.977051,544.341919 
	C2394.798340,553.184875 2403.595703,562.052246 2412.479248,570.832520 
	C2445.266602,603.239929 2478.176025,635.524414 2510.868164,668.027649 
	C2546.652832,703.605774 2582.253906,739.368591 2617.922852,775.063232 
	C2643.937988,801.096863 2669.933105,827.150024 2695.868896,853.706116 
	C2695.678711,854.355103 2695.557129,854.492432 2695.435547,854.629822 
z"/>
<path fill="#EC3237" opacity="1.000000" stroke="none" 
	d="
M1177.772461,1013.900879 
	C1174.459595,1017.499634 1171.146851,1021.098328 1167.591797,1024.960205 
	C1164.389160,1021.533325 1161.492432,1018.433899 1158.285400,1014.860718 
	C1157.703613,1014.186523 1157.432373,1013.986084 1157.161255,1013.785645 
	C1157.161255,1013.785645 1157.155518,1013.866028 1157.133545,1013.573364 
	C1156.706909,1012.867310 1156.302246,1012.453979 1155.897705,1012.040649 
	C1155.897705,1012.040649 1155.960938,1012.030029 1155.900635,1011.791504 
	C1155.560303,1011.354248 1155.280029,1011.155457 1154.999878,1010.956665 
	C1154.999878,1010.956665 1154.985718,1011.010559 1154.968750,1010.660522 
	C1154.028809,1008.926147 1153.144287,1007.514526 1152.177734,1006.161438 
	C1099.014404,931.742676 1045.842896,857.329895 992.675354,782.914185 
	C907.645691,663.903015 822.621826,544.887817 737.587830,425.879791 
	C707.564087,383.860596 677.499146,341.870850 647.540466,299.805298 
	C646.132629,297.828491 645.580627,295.242218 644.630066,292.939758 
	C646.129211,294.252777 647.708252,295.485779 649.115295,296.891052 
	C665.955750,313.711090 682.794434,330.533142 699.586670,347.401276 
	C724.243042,372.169128 748.771912,397.064606 773.533997,421.726135 
	C785.895752,434.037842 798.806458,445.797760 811.195862,458.082611 
	C827.499329,474.248444 843.464417,490.755035 859.702820,506.987213 
	C877.944397,525.221741 896.392822,543.249512 914.632263,561.486206 
	C932.165222,579.016602 949.475769,596.769470 967.012085,614.296509 
	C987.140930,634.414673 1007.468018,654.334534 1027.600464,674.449036 
	C1043.371460,690.206055 1058.909302,706.196411 1074.674316,721.959412 
	C1092.324219,739.606873 1110.108276,757.120178 1127.846558,774.679077 
	C1131.419800,778.216125 1133.941772,778.214294 1137.584839,774.607300 
	C1148.478394,763.821533 1159.316528,752.979736 1170.212158,742.196167 
	C1198.621460,714.079041 1227.064209,685.995789 1255.463379,657.868530 
	C1265.525757,647.902588 1275.447144,637.794250 1285.527100,627.846375 
	C1304.241333,609.377075 1323.089966,591.043579 1341.760376,572.530212 
	C1359.266479,555.171387 1376.562622,537.600769 1394.052612,520.225464 
	C1403.957520,510.385712 1414.163086,500.848602 1424.063843,491.004944 
	C1446.031860,469.163361 1467.815552,447.136078 1489.823364,425.334778 
	C1506.956543,408.362305 1524.420776,391.723816 1541.544312,374.741730 
	C1560.462402,355.979797 1579.061157,336.895874 1597.983032,318.137848 
	C1615.107544,301.161621 1632.591553,284.548065 1649.712036,267.567963 
	C1668.390869,249.042252 1686.728149,230.172180 1705.411743,211.651291 
	C1722.296631,194.913574 1739.570312,178.567993 1756.448608,161.823837 
	C1775.830811,142.595718 1794.859131,123.010979 1814.243042,103.784607 
	C1830.290771,87.867172 1846.631714,72.245346 1863.349609,56.627808 
	C1862.653320,58.912151 1861.645752,61.201538 1860.218872,63.189945 
	C1807.563477,136.566589 1754.870239,209.916107 1702.180176,283.267853 
	C1611.381714,409.671661 1520.581909,536.074402 1429.783203,662.477844 
	C1354.248047,767.632629 1278.701416,872.779236 1203.194824,977.954590 
	C1195.340576,988.895081 1187.724365,1000.006531 1179.997803,1011.038696 
	C1179.997803,1011.038696 1180.044800,1011.032654 1179.762695,1011.128845 
	C1179.215332,1011.754211 1178.949951,1012.283386 1178.684570,1012.812500 
	C1178.684570,1012.812500 1178.786865,1012.820435 1178.524414,1012.871094 
	C1178.098755,1013.248169 1177.935547,1013.574585 1177.772461,1013.900879 
z"/>
<path fill="#A8AAAD" opacity="1.000000" stroke="none" 
	d="
M1143.922974,1000.923462 
	C1130.937500,988.034790 1117.948730,975.149414 1104.967163,962.256836 
	C1057.571045,915.186035 1010.102112,868.188110 962.802368,821.020630 
	C908.640869,767.010559 854.696899,712.782227 800.533508,658.774109 
	C755.236084,613.606567 709.879639,568.496521 664.247742,523.667908 
	C656.160034,515.722534 647.193787,508.308289 637.568542,502.376221 
	C623.177979,493.507263 612.307312,498.609833 601.157227,508.658905 
	C586.877502,521.528625 572.931824,534.770813 558.919617,547.934998 
	C547.543762,558.622375 536.217346,569.364136 524.985046,580.202087 
	C507.641754,596.936646 490.347290,613.722534 473.126495,630.583069 
	C458.271393,645.127441 443.581177,659.840210 428.756653,674.416077 
	C414.991577,687.950256 401.148041,701.404724 387.333862,714.888916 
	C374.828094,727.096008 362.315460,739.295959 349.805756,751.499023 
	C336.223602,764.748169 322.652710,778.009033 309.055664,791.242920 
	C296.536133,803.428101 283.975525,815.570984 271.456909,827.757141 
	C259.054779,839.829834 246.679276,851.929932 234.298203,864.024292 
	C221.079773,876.936646 207.875290,889.863342 194.651932,902.770752 
	C181.434738,915.672119 168.212128,928.567993 154.972549,941.446411 
	C143.758591,952.354614 132.548706,963.267334 121.271935,974.110229 
	C116.745255,978.462830 112.044807,982.634705 106.586578,986.315125 
	C107.136940,985.323608 107.588242,984.259766 108.252007,983.351196 
	C134.291092,947.708862 160.287262,912.034851 186.426559,876.466125 
	C204.632614,851.692505 223.093048,827.105957 241.339981,802.362305 
	C260.267181,776.696167 279.087494,750.951233 297.930084,725.222778 
	C319.114594,696.296570 340.218170,667.310913 361.455933,638.423889 
	C382.396851,609.940613 403.478760,581.561157 424.465424,553.111450 
	C436.910492,536.240845 449.293915,519.324768 461.699921,502.425385 
	C485.958405,469.380646 510.221191,436.338989 534.467163,403.285065 
	C555.379395,374.775909 576.249451,346.235779 597.181030,317.740845 
	C606.658081,304.839447 616.280701,292.044769 625.724426,279.119202 
	C627.013306,277.355194 627.779053,275.866455 629.782410,279.103149 
	C707.972900,388.804199 785.917664,497.890289 863.866394,606.973633 
	C956.340271,736.383850 1048.821045,865.789185 1141.252930,995.229431 
	C1142.451172,996.907349 1143.046387,999.015930 1143.922974,1000.923462 
z"/>
<path fill="#363334" opacity="1.000000" stroke="none" 
	d="
M844.783081,971.413330 
	C845.593506,989.142700 846.362427,1006.411255 847.009033,1023.684387 
	C847.438232,1035.149292 847.509766,1046.631470 848.182556,1058.079956 
	C848.313904,1060.315430 850.016724,1063.539062 851.829834,1064.289795 
	C853.624084,1065.032471 857.191406,1063.947510 858.740601,1062.412476 
	C866.379517,1054.843140 873.631287,1046.881348 880.965942,1039.007935 
	C883.722168,1036.048950 886.972778,1036.057861 889.968140,1037.953857 
	C893.052124,1039.905884 892.312073,1042.515137 890.284180,1045.201294 
	C880.239075,1058.507324 869.768738,1071.311035 854.990540,1079.831055 
	C850.880615,1082.200439 848.607117,1085.913818 848.955750,1091.061157 
	C849.471985,1098.684204 850.054749,1106.338379 849.893860,1113.964355 
	C849.536560,1130.906982 848.455627,1147.836060 848.204163,1164.778687 
	C848.006775,1178.074951 848.426758,1191.389771 848.922485,1204.683472 
	C849.268555,1213.964355 850.301147,1223.217529 850.859253,1232.493164 
	C851.966064,1250.886475 853.038208,1269.283081 853.880615,1287.689453 
	C853.973755,1289.724121 853.067627,1292.515137 851.606689,1293.770996 
	C847.896912,1296.959839 842.552795,1294.376831 842.083252,1289.411255 
	C841.833252,1286.767212 842.161194,1284.071899 841.971252,1281.418091 
	C840.763428,1264.543091 839.471375,1247.674194 838.232849,1230.801270 
	C837.491394,1220.699707 836.689819,1210.600708 836.113586,1200.489258 
	C835.631165,1192.024902 835.121521,1183.541992 835.174805,1175.070801 
	C835.323608,1151.430420 835.798584,1127.792480 836.058716,1104.152466 
	C836.152039,1095.673340 833.015747,1094.295166 825.161926,1097.633179 
	C804.645752,1106.353149 783.948303,1114.652588 763.248474,1122.932983 
	C737.898865,1133.073364 712.699341,1143.401855 689.635864,1158.388184 
	C681.944397,1163.385864 682.599426,1170.123535 683.160278,1177.211792 
	C684.259766,1191.107788 686.035278,1204.959351 686.813416,1218.869629 
	C688.122253,1242.269287 688.766907,1265.705444 689.910706,1289.115479 
	C690.324036,1297.576294 691.368774,1306.006348 692.125732,1314.450439 
	C692.491333,1318.528442 691.592346,1321.922363 686.885376,1322.591553 
	C683.228394,1323.111572 680.158752,1319.432495 679.889893,1314.552002 
	C678.893799,1296.468750 677.923340,1278.384033 676.907349,1260.302002 
	C675.947693,1243.224243 675.070801,1226.140259 673.912354,1209.075684 
	C673.159668,1197.989258 672.116089,1186.915161 670.835632,1175.878174 
	C670.605225,1173.892822 669.017578,1171.353149 667.311218,1170.390259 
	C662.977966,1167.944702 663.471191,1164.952271 666.223999,1162.369019 
	C670.360657,1158.487183 670.210022,1153.860107 669.873535,1148.991699 
	C669.599182,1145.021484 669.158752,1141.057983 669.023010,1137.083740 
	C668.307861,1116.149658 667.743530,1095.210327 666.970764,1074.278442 
	C666.474365,1060.832275 665.915527,1047.381958 665.008057,1033.959106 
	C664.011475,1019.217651 662.483276,1004.512878 661.394775,989.776733 
	C661.002808,984.471008 661.304626,979.117554 661.121460,973.791626 
	C660.990234,969.977966 660.609009,966.171326 660.283691,962.366272 
	C659.967773,958.670532 663.104614,953.459473 666.016052,953.608521 
	C670.045715,953.814758 672.106873,956.062866 672.279175,960.409912 
	C672.673645,970.360962 673.365967,980.302185 674.061462,990.238770 
	C675.289612,1007.788147 676.628784,1025.329712 677.881958,1042.877441 
	C678.307739,1048.839600 678.721375,1054.806030 678.952454,1060.777832 
	C679.376831,1071.741455 679.716248,1082.709106 679.991333,1093.677490 
	C680.379150,1109.143677 680.644531,1124.613037 681.029480,1140.079346 
	C681.161072,1145.368530 684.740784,1147.665894 689.994080,1145.398071 
	C694.711365,1143.361694 699.168152,1140.695068 703.655212,1138.157104 
	C721.954163,1127.806641 741.313049,1119.900757 760.872864,1112.270020 
	C784.247803,1103.150757 807.181458,1092.903809 830.363342,1083.282959 
	C834.701660,1081.482544 836.315613,1078.715576 836.146729,1074.054688 
	C835.327576,1051.448975 834.839417,1028.831177 834.023621,1006.225281 
	C833.495972,991.604492 832.567749,976.998535 831.902039,962.382080 
	C831.703247,958.018005 834.134705,955.055115 837.766602,955.348999 
	C841.673828,955.665100 844.298706,957.435791 844.141724,962.011963 
	C844.039795,964.983032 844.487915,967.972961 844.783081,971.413330 
z"/>
<path fill="#363334" opacity="1.000000" stroke="none" 
	d="
M364.409302,1081.592041 
	C371.352692,1102.682007 377.857788,1123.507202 385.017303,1144.104980 
	C393.482788,1168.459961 402.419891,1192.652954 411.328552,1216.851440 
	C418.396942,1236.050903 425.727020,1255.154175 432.953918,1274.295288 
	C433.423615,1275.539185 433.707306,1277.059814 434.599304,1277.893433 
	C436.277405,1279.461548 438.386292,1281.725342 440.223480,1281.642700 
	C442.076324,1281.559204 444.665436,1279.335205 445.465332,1277.432495 
	C449.847870,1267.007935 453.704712,1256.364380 457.880768,1245.850952 
	C468.199615,1219.873169 478.881104,1194.035156 488.859711,1167.927856 
	C495.862976,1149.605225 501.836304,1130.891602 508.470428,1112.424683 
	C520.114929,1080.010742 531.377136,1047.444092 543.829773,1015.341125 
	C552.603943,992.721191 563.071228,970.757324 572.809143,948.512207 
	C574.877319,943.787659 577.024048,939.096436 579.202698,934.421570 
	C580.979858,930.608093 583.906433,929.517456 587.848938,930.958496 
	C591.932739,932.451294 591.260254,935.533264 590.046631,938.370544 
	C586.529602,946.592957 582.750793,954.702942 579.120544,962.877319 
	C570.888550,981.413635 562.325500,999.814087 554.585754,1018.554199 
	C548.745544,1032.695068 543.864075,1047.238159 538.748169,1061.670410 
	C527.963867,1092.093140 517.705872,1122.708862 506.485504,1152.968628 
	C494.803955,1184.472290 482.212982,1215.638184 470.079865,1246.975098 
	C464.011078,1262.649170 458.229614,1278.436646 451.975800,1294.035645 
	C450.353485,1298.082153 449.522614,1303.406860 443.460480,1303.930054 
	C436.823608,1304.502930 432.717224,1300.280762 429.717468,1295.554199 
	C426.267944,1290.119141 423.573212,1284.098633 421.279236,1278.055664 
	C412.894165,1255.967407 404.697296,1233.805786 396.647522,1211.592773 
	C387.973022,1187.655640 379.271729,1163.721924 371.074524,1139.619385 
	C360.519287,1108.583252 350.856293,1077.240112 340.048340,1046.294800 
	C331.546631,1021.952881 321.837891,998.033936 312.807526,973.873901 
	C311.425629,970.176636 310.956390,966.148132 309.798920,962.353943 
	C308.830566,959.179749 308.991577,956.702332 312.652527,955.721741 
	C316.357117,954.729553 319.427704,955.891479 320.850677,959.469238 
	C322.814423,964.406677 324.185394,969.576294 326.034973,974.563171 
	C335.060760,998.898499 344.299042,1023.155945 353.173492,1047.546021 
	C357.213013,1058.647827 360.585541,1069.992310 364.409302,1081.592041 
z"/>
<path fill="#ED3237" opacity="1.000000" stroke="none" 
	d="
M1867.084961,763.825195 
	C1865.198853,765.042053 1863.397095,766.522827 1861.587280,766.532898 
	C1834.958496,766.681702 1808.328369,766.586060 1781.699219,766.688538 
	C1777.833374,766.703430 1776.388184,765.306213 1776.402100,761.439575 
	C1776.495117,735.642456 1776.490356,709.844727 1776.403931,684.047485 
	C1776.391479,680.316467 1778.065552,679.037476 1781.526367,679.041687 
	C1808.488892,679.074280 1835.451538,679.106995 1862.413818,679.017517 
	C1867.666992,679.000061 1867.769775,682.611084 1867.806641,686.107849 
	C1867.927856,697.590576 1867.853027,709.075439 1867.853271,720.559448 
	C1867.853516,732.875671 1867.883545,745.192017 1867.822510,757.507996 
	C1867.812744,759.474731 1867.394897,761.439453 1867.084961,763.825195 
z"/>
<path fill="#ED3237" opacity="1.000000" stroke="none" 
	d="
M1893.024536,614.000000 
	C1893.024536,596.005859 1893.011597,578.511780 1893.031738,561.017639 
	C1893.038940,554.768372 1893.786377,554.007202 1899.822144,554.004700 
	C1925.813354,553.993774 1951.805420,554.096313 1977.795288,553.912537 
	C1982.550171,553.878845 1984.298950,555.358765 1984.268799,560.184570 
	C1984.113037,585.175171 1984.074585,610.168457 1984.296143,635.158081 
	C1984.342163,640.346680 1981.881714,642.171570 1977.475464,642.184998 
	C1951.651245,642.263550 1925.826172,642.300659 1900.002563,642.156921 
	C1893.897705,642.122925 1893.038330,640.836426 1893.027222,634.493347 
	C1893.015503,627.828918 1893.024536,621.164429 1893.024536,614.000000 
z"/>
<path fill="#ED3237" opacity="1.000000" stroke="none" 
	d="
M1985.022949,681.483887 
	C1985.124268,708.255859 1985.069946,734.573059 1985.221558,760.888977 
	C1985.247192,765.331238 1983.447266,766.698669 1979.269043,766.683655 
	C1952.952271,766.589050 1926.635132,766.585815 1900.318359,766.677368 
	C1895.568848,766.693848 1893.913574,764.700317 1893.939209,760.031128 
	C1894.075439,735.213928 1893.991577,710.395691 1894.011841,685.577759 
	C1894.016479,679.838989 1894.843262,679.063538 1900.753174,679.061279 
	C1926.737061,679.051147 1952.721191,679.011963 1978.704346,679.142273 
	C1980.784790,679.152710 1982.859253,680.371399 1985.022949,681.483887 
z"/>
<path fill="#ED3237" opacity="1.000000" stroke="none" 
	d="
M1775.641846,638.851135 
	C1775.613770,613.194641 1775.552368,587.538086 1775.581665,561.881653 
	C1775.588745,555.631287 1776.355957,554.979614 1782.429688,554.977905 
	C1808.586914,554.970398 1834.744751,555.072266 1860.900635,554.883179 
	C1865.531372,554.849731 1866.988159,556.361633 1866.960205,560.907837 
	C1866.805420,586.064453 1866.806885,611.222961 1866.958252,636.379578 
	C1866.985840,640.971191 1865.395020,642.357666 1860.833374,642.325378 
	C1834.510864,642.139099 1808.186279,642.264221 1781.862793,642.171143 
	C1780.018677,642.164673 1778.177856,641.250061 1776.131470,640.084900 
	C1775.832275,639.225098 1775.737061,639.038086 1775.641846,638.851135 
z"/>
<path fill="#363334" opacity="1.000000" stroke="none" 
	d="
M1415.800171,1222.832031 
	C1439.749512,1207.907837 1457.648438,1188.009766 1469.127197,1162.627319 
	C1471.762085,1156.800659 1472.818481,1150.247437 1474.475342,1143.995239 
	C1475.869141,1138.735718 1478.796143,1136.480225 1483.144409,1137.578003 
	C1487.722778,1138.733887 1488.334106,1140.974976 1486.980713,1146.876831 
	C1483.151611,1163.573730 1475.586182,1178.514282 1465.049072,1191.760376 
	C1452.682251,1207.306885 1438.269897,1220.473145 1421.009644,1231.008301 
	C1404.415039,1241.137329 1387.161743,1248.998291 1368.406494,1253.180298 
	C1355.504517,1256.057373 1342.208618,1258.250977 1329.037231,1258.561279 
	C1312.728516,1258.945679 1297.360474,1253.419189 1284.474731,1243.394409 
	C1274.431396,1235.581055 1269.187134,1223.979004 1264.802734,1212.121094 
	C1258.550537,1195.211914 1259.745483,1177.837158 1260.474731,1160.338989 
	C1261.153687,1144.048950 1263.914551,1128.220093 1269.203003,1112.909302 
	C1277.198486,1089.760742 1286.077637,1066.885986 1300.726196,1046.977783 
	C1310.061890,1034.290161 1319.494385,1021.423584 1330.577271,1010.329529 
	C1347.946411,992.943054 1366.462524,976.494507 1388.300293,964.737488 
	C1405.990723,955.213318 1423.660889,945.275452 1443.420166,940.457092 
	C1462.227051,935.870911 1481.297241,932.973694 1500.585815,937.155945 
	C1506.163696,938.365417 1511.700806,940.605530 1516.701416,943.375366 
	C1520.923950,945.714233 1521.744141,950.270203 1519.611694,952.588440 
	C1516.847046,955.594055 1511.297485,955.574158 1508.599365,951.789612 
	C1503.618408,944.803223 1496.217651,943.379700 1488.811646,943.212219 
	C1463.395630,942.637268 1439.520508,949.048706 1416.657349,959.992920 
	C1386.850952,974.260681 1360.981445,993.963989 1338.233887,1017.591919 
	C1323.474731,1032.922241 1310.409668,1049.828979 1301.089478,1069.237427 
	C1295.767578,1080.319702 1289.297852,1091.039917 1285.511475,1102.630859 
	C1277.665405,1126.650024 1270.712158,1151.064331 1271.198730,1176.745605 
	C1271.494141,1192.336182 1274.292114,1207.233521 1281.498291,1221.512573 
	C1289.742432,1237.848389 1302.522949,1246.822021 1320.035400,1249.877197 
	C1336.364380,1252.725830 1352.073364,1249.201782 1367.814209,1245.277710 
	C1385.203247,1240.942871 1400.622070,1232.628418 1415.800171,1222.832031 
z"/>
<path fill="#363334" opacity="1.000000" stroke="none" 
	d="
M1785.332520,1117.871826 
	C1787.020508,1123.989380 1789.288086,1129.681885 1789.888184,1135.544800 
	C1790.775146,1144.211914 1784.443359,1150.473633 1775.603516,1150.856689 
	C1773.109131,1150.964722 1770.601685,1150.784302 1768.108154,1150.903198 
	C1746.864624,1151.916260 1725.625488,1153.029663 1704.379272,1153.983032 
	C1692.917358,1154.497437 1681.424561,1154.463867 1669.981689,1155.221069 
	C1660.048462,1155.878174 1650.128784,1157.061768 1640.291748,1158.584839 
	C1638.313843,1158.891113 1635.254150,1161.727295 1635.203247,1163.470459 
	C1634.756470,1178.738403 1633.212402,1194.237915 1638.856689,1208.938965 
	C1642.183838,1217.605469 1645.278320,1226.769653 1650.641602,1234.133911 
	C1656.291260,1241.891235 1663.986694,1248.476807 1671.736084,1254.316895 
	C1685.542725,1264.721924 1701.323486,1266.297852 1718.116089,1262.926147 
	C1733.336182,1259.870239 1747.312500,1253.678345 1760.917969,1246.796021 
	C1774.918091,1239.714111 1784.952026,1228.781738 1788.301758,1212.643188 
	C1789.572754,1206.519775 1791.939331,1205.112061 1796.858643,1206.045654 
	C1799.968994,1206.635742 1802.062256,1208.133057 1801.245117,1211.885986 
	C1798.569702,1224.172241 1794.094238,1235.596802 1783.399658,1243.077026 
	C1761.522339,1258.379150 1737.228882,1268.476318 1710.799683,1271.696777 
	C1680.472412,1275.391968 1651.351929,1259.519287 1636.244385,1232.483032 
	C1628.541504,1218.698486 1623.919800,1204.181274 1621.656738,1188.842163 
	C1620.673218,1182.176025 1621.008667,1175.229614 1621.474976,1168.460938 
	C1621.877686,1162.615723 1619.968994,1159.562500 1614.156738,1159.046631 
	C1611.162231,1158.780884 1606.724365,1159.906128 1606.768555,1155.373047 
	C1606.811768,1150.943115 1611.357544,1151.314209 1614.516602,1151.105469 
	C1622.152954,1150.601318 1624.375366,1149.429810 1626.023193,1139.695190 
	C1628.151367,1127.122925 1634.656494,1116.455200 1639.135254,1104.911255 
	C1646.297363,1086.451050 1660.816406,1075.675659 1678.241333,1068.715576 
	C1700.931030,1059.652344 1724.171631,1059.959717 1745.942871,1071.004639 
	C1760.375366,1078.326660 1772.305054,1089.439697 1778.793457,1105.170654 
	C1780.553711,1109.438110 1783.022461,1113.413452 1785.332520,1117.871826 
M1726.687378,1072.632935 
	C1717.964844,1069.589111 1709.065674,1069.369873 1700.090210,1071.138428 
	C1681.614502,1074.778687 1665.004761,1082.324219 1655.679688,1099.375244 
	C1648.393677,1112.697632 1643.294678,1127.256470 1637.746216,1141.469849 
	C1635.339355,1147.635864 1637.700439,1150.351440 1644.320557,1149.989136 
	C1652.768066,1149.526855 1661.185181,1148.534790 1669.629272,1147.980347 
	C1689.855347,1146.651733 1710.082886,1145.318970 1730.322998,1144.235352 
	C1743.279419,1143.541748 1756.260254,1143.305664 1769.228149,1142.811890 
	C1770.540039,1142.761841 1772.142090,1142.739746 1773.073975,1142.015625 
	C1774.622437,1140.811890 1776.808350,1139.062744 1776.827759,1137.519653 
	C1776.880737,1133.299438 1776.709229,1128.773315 1775.225830,1124.905640 
	C1772.792725,1118.562012 1769.074341,1112.725098 1766.218750,1106.526733 
	C1761.053955,1095.315186 1753.496826,1086.254150 1742.726196,1080.165771 
	C1737.823730,1077.394531 1732.544312,1075.290283 1726.687378,1072.632935 
z"/>
<path fill="#363334" opacity="1.000000" stroke="none" 
	d="
M2246.162109,1135.930908 
	C2257.278564,1137.996704 2267.959717,1140.486816 2278.783936,1141.776123 
	C2299.252441,1144.213989 2319.113281,1148.990234 2338.085449,1156.855347 
	C2349.989990,1161.790161 2358.942871,1170.880859 2366.477295,1181.256104 
	C2374.634521,1192.488403 2370.322998,1209.793823 2362.339600,1219.267700 
	C2347.481934,1236.899292 2328.269531,1247.008423 2306.094482,1252.061646 
	C2297.024414,1254.128540 2288.043945,1257.166748 2278.860596,1258.021484 
	C2266.021240,1259.216309 2253.030273,1258.787842 2240.103760,1259.041504 
	C2226.377441,1259.310669 2212.777588,1258.064087 2199.693359,1253.861694 
	C2189.610596,1250.623291 2179.323242,1247.408081 2170.027832,1242.482300 
	C2157.407471,1235.794678 2153.357910,1223.315308 2157.684082,1209.617432 
	C2161.554199,1197.362305 2169.552979,1189.474365 2182.377686,1186.850464 
	C2188.084961,1185.682739 2193.732910,1184.145996 2199.485107,1183.307373 
	C2202.680908,1182.841553 2207.670166,1181.226074 2208.496582,1185.665283 
	C2209.363281,1190.320312 2204.067627,1190.019165 2200.937500,1190.838623 
	C2197.247559,1191.804810 2193.399658,1192.153931 2189.684326,1193.039917 
	C2169.183105,1197.929565 2164.303955,1217.025146 2173.164307,1232.796997 
	C2174.520752,1235.211670 2177.166260,1237.450806 2179.737549,1238.546265 
	C2197.783936,1246.234009 2216.386719,1250.499146 2236.290771,1251.257324 
	C2255.768311,1251.999023 2274.846924,1251.642212 2293.716553,1246.866089 
	C2313.910645,1241.755005 2333.174805,1234.686279 2348.175049,1219.244873 
	C2359.161133,1207.935303 2362.407471,1189.982056 2348.774658,1175.972778 
	C2338.591309,1165.508057 2325.998047,1159.463257 2312.331787,1156.341919 
	C2296.015869,1152.615356 2279.263672,1150.833984 2262.751709,1147.918457 
	C2253.929443,1146.360596 2245.015625,1144.827637 2236.492920,1142.164062 
	C2217.845703,1136.335815 2211.685791,1117.844849 2222.180176,1101.319580 
	C2229.285645,1090.130493 2240.312744,1083.686279 2251.434814,1077.915405 
	C2276.745361,1064.782593 2303.412842,1062.350830 2330.678955,1071.180908 
	C2336.937988,1073.207886 2342.712158,1076.794922 2348.584717,1079.900269 
	C2349.829346,1080.558350 2351.568604,1082.841187 2351.278809,1083.350586 
	C2350.470215,1084.771729 2348.656006,1086.631104 2347.347900,1086.550049 
	C2344.499268,1086.373901 2341.438477,1085.597046 2338.957031,1084.194458 
	C2324.931641,1076.267334 2309.935547,1072.639893 2293.954590,1074.364502 
	C2286.077881,1075.214478 2278.316406,1077.273804 2270.554199,1079.014160 
	C2255.898193,1082.299927 2245.120850,1091.654053 2235.243408,1102.212891 
	C2229.190674,1108.683105 2228.888916,1116.896851 2230.590820,1124.781494 
	C2231.225098,1127.719482 2235.206055,1130.195190 2238.083740,1132.305420 
	C2240.312012,1133.939697 2243.197998,1134.677124 2246.162109,1135.930908 
z"/>
<path fill="#363334" opacity="1.000000" stroke="none" 
	d="
M1968.029297,1259.850342 
	C1941.735107,1259.698853 1916.469727,1256.599487 1892.405396,1246.556641 
	C1880.418823,1241.554199 1871.769897,1233.537476 1871.775513,1219.933228 
	C1871.781006,1206.903076 1877.333862,1194.426880 1891.417969,1189.147705 
	C1899.881104,1185.975586 1909.110474,1184.730957 1918.089111,1183.151367 
	C1919.848633,1182.842041 1923.350342,1184.600342 1923.762939,1186.053711 
	C1924.707642,1189.381836 1921.375000,1189.720459 1918.947266,1190.223877 
	C1914.389526,1191.168701 1909.821045,1192.061768 1905.256836,1192.975098 
	C1886.757690,1196.676880 1878.024902,1218.109253 1889.061523,1233.567749 
	C1891.094727,1236.415527 1894.933228,1238.336670 1898.321899,1239.792969 
	C1915.465820,1247.159912 1933.334595,1250.177734 1952.089600,1251.278931 
	C1974.201538,1252.577393 1995.572021,1250.676147 2016.783325,1245.008057 
	C2033.571411,1240.521851 2049.040527,1233.074341 2061.868408,1221.397827 
	C2074.000977,1210.354126 2079.710693,1191.110718 2063.928467,1175.709106 
	C2053.227539,1165.266357 2040.803101,1159.404419 2027.074585,1156.252563 
	C2010.924805,1152.545288 1994.325317,1150.840942 1977.994751,1147.863892 
	C1965.808716,1145.642212 1953.160278,1144.708984 1942.523926,1137.206177 
	C1933.478882,1130.825928 1930.569336,1117.974731 1934.603149,1107.803833 
	C1939.720947,1094.899902 1950.388428,1088.032715 1961.142700,1081.066895 
	C1980.055054,1068.817139 2001.306763,1065.220581 2023.203491,1066.292603 
	C2037.544678,1066.994629 2051.372314,1071.229980 2063.439697,1079.655640 
	C2064.765381,1080.581177 2065.458252,1082.413696 2066.444580,1083.825439 
	C2064.327881,1084.769653 2062.280273,1086.021973 2060.063232,1086.519165 
	C2059.057861,1086.744873 2057.713135,1085.479980 2056.528320,1084.878906 
	C2042.853394,1077.941406 2028.656250,1073.074707 2013.020020,1074.030396 
	C1990.040527,1075.434692 1969.149902,1082.136719 1953.163452,1099.538818 
	C1949.419678,1103.614258 1946.821289,1109.361084 1945.376953,1114.786621 
	C1943.111084,1123.296875 1948.218994,1130.235107 1956.598633,1133.988159 
	C1968.558228,1139.344727 1981.253662,1140.471680 1993.972534,1141.895752 
	C2014.909546,1144.239868 2035.365112,1148.748169 2054.623535,1157.434204 
	C2065.244385,1162.224487 2073.540771,1170.167114 2080.707275,1179.403931 
	C2089.020264,1190.118774 2087.576660,1200.946411 2082.286865,1212.216309 
	C2076.239990,1225.098633 2065.272949,1232.903931 2053.531494,1239.555298 
	C2033.233154,1251.053467 2010.909912,1256.281982 1987.931641,1258.884766 
	C1981.508179,1259.612549 1974.995117,1259.550537 1968.029297,1259.850342 
z"/>
<path fill="#ED3237" opacity="1.000000" stroke="none" 
	d="
M534.181335,702.998474 
	C534.181335,688.189514 534.172241,673.880127 534.184937,659.570740 
	C534.192078,651.516663 534.384338,651.330139 542.106873,651.329407 
	C562.739014,651.327515 583.373413,651.492920 604.001709,651.211609 
	C609.047729,651.142822 611.085083,653.080200 611.095764,657.692749 
	C611.142395,677.825562 611.144592,697.958618 611.100281,718.091431 
	C611.090393,722.604309 609.298889,724.748657 604.134338,724.676514 
	C583.007080,724.381104 561.870850,724.374451 540.743835,724.678284 
	C535.430725,724.754639 534.090759,722.504822 534.164917,717.973450 
	C534.243835,713.149536 534.181763,708.323303 534.181335,702.998474 
z"/>
<path fill="#ED3237" opacity="1.000000" stroke="none" 
	d="
M709.763062,688.000122 
	C709.762695,698.483093 709.650757,708.467896 709.818787,718.447998 
	C709.882996,722.259583 708.663635,723.734558 704.662903,723.707214 
	C682.701416,723.556946 660.737854,723.556091 638.776367,723.706665 
	C634.709167,723.734558 633.716614,722.151245 633.740540,718.382812 
	C633.873291,697.419495 633.895752,676.454102 633.726074,655.491272 
	C633.692993,651.407166 635.313660,650.359314 639.026672,650.374451 
	C660.822388,650.463196 682.619324,650.495850 704.414246,650.334534 
	C708.748779,650.302429 709.843689,652.206787 709.801208,656.054199 
	C709.685486,666.535034 709.762451,677.017944 709.763062,688.000122 
z"/>
<path fill="#ED3237" opacity="1.000000" stroke="none" 
	d="
M609.991577,757.014771 
	C610.369934,758.552368 611.072327,760.088745 611.077759,761.627686 
	C611.150757,782.285828 611.157959,802.944458 611.069214,823.602478 
	C611.061768,825.314453 610.242126,827.022888 609.202576,828.855469 
	C608.282349,829.010254 608.041565,829.168030 607.882874,829.451172 
	C585.057983,829.537659 562.232605,829.691650 539.409058,829.556213 
	C537.916321,829.547424 535.862000,827.604065 535.100464,826.053833 
	C534.205505,824.231873 534.222290,821.856812 534.215332,819.720337 
	C534.156067,801.554138 534.166382,783.387695 534.188293,765.221313 
	C534.198242,756.996765 534.676392,756.552979 542.946228,756.555481 
	C564.612488,756.562134 586.278687,756.572693 608.666626,756.774048 
	C609.589294,756.982544 609.790405,756.998657 609.991577,757.014771 
z"/>
<path fill="#ED3237" opacity="1.000000" stroke="none" 
	d="
M634.666504,826.918030 
	C634.696533,805.420715 634.847534,783.922302 634.659851,762.426880 
	C634.619751,757.829712 635.951782,756.409058 640.596313,756.457031 
	C662.092224,756.679077 683.592590,756.656067 705.089233,756.471985 
	C709.497131,756.434326 710.836487,757.895935 710.798279,762.233154 
	C710.619080,782.563232 710.733093,802.895752 710.710022,823.227417 
	C710.703064,829.376831 710.338257,829.712646 704.198547,829.715454 
	C683.533569,829.724976 662.868469,829.751343 642.203796,829.672913 
	C639.920227,829.664246 637.639099,829.022095 635.114624,828.065430 
	C634.803772,827.277466 634.735168,827.097778 634.666504,826.918030 
z"/>
<path fill="#363334" opacity="1.000000" stroke="none" 
	d="
M1490.165771,1278.687012 
	C1493.746094,1293.682495 1499.768066,1307.117676 1508.837646,1319.093628 
	C1510.787354,1321.668335 1512.106812,1323.999390 1508.962036,1326.298950 
	C1505.995361,1328.468506 1502.382324,1329.168701 1500.066284,1325.827759 
	C1494.976562,1318.485474 1490.173584,1310.918457 1485.705566,1303.182251 
	C1483.572876,1299.489258 1482.527710,1295.177490 1480.893677,1291.185303 
	C1474.677246,1275.999756 1474.623047,1260.271118 1477.387939,1244.503662 
	C1480.918091,1224.372192 1484.187988,1204.129395 1489.188721,1184.343750 
	C1492.665283,1170.588257 1498.556763,1157.394287 1503.960327,1144.191284 
	C1507.604858,1135.286011 1512.281006,1126.802979 1516.489868,1118.128174 
	C1516.925781,1117.229980 1517.712402,1116.289429 1517.660767,1115.408203 
	C1517.522217,1113.044678 1517.743530,1110.078979 1516.429077,1108.548096 
	C1515.364990,1107.308716 1512.104980,1107.131958 1510.116577,1107.642700 
	C1497.379883,1110.913818 1484.837402,1115.003174 1472.020142,1117.885986 
	C1446.557739,1123.612549 1420.975708,1128.813477 1395.410034,1134.071655 
	C1380.760498,1137.084839 1366.050537,1139.806519 1351.354736,1142.591064 
	C1349.749268,1142.895264 1347.853516,1143.252075 1346.456055,1142.686279 
	C1344.521729,1141.903076 1342.932373,1140.267944 1341.195312,1138.997681 
	C1342.883423,1137.677002 1344.391235,1135.666870 1346.294556,1135.169556 
	C1351.259155,1133.872437 1356.415405,1133.329468 1361.462646,1132.323120 
	C1382.167236,1128.194458 1402.903198,1124.208252 1423.544678,1119.782715 
	C1445.159668,1115.148315 1466.742554,1110.327637 1488.215942,1105.083374 
	C1499.841919,1102.244141 1511.206909,1098.338867 1522.700073,1094.949951 
	C1524.125732,1094.529541 1525.607056,1094.122314 1527.077637,1094.059326 
	C1534.604492,1093.737793 1537.450073,1096.945801 1535.101929,1104.062256 
	C1532.869873,1110.826904 1529.849121,1117.348022 1526.927612,1123.865356 
	C1519.646729,1140.107544 1511.491699,1156.005371 1505.127441,1172.593750 
	C1501.127319,1183.019775 1499.312500,1194.366333 1497.256592,1205.437256 
	C1493.923462,1223.387207 1490.795288,1241.397705 1488.439819,1259.494507 
	C1487.648071,1265.578613 1489.473267,1272.003296 1490.165771,1278.687012 
z"/>
<path fill="#43383A" opacity="1.000000" stroke="none" 
	d="
M1180.340088,1010.996338 
	C1187.724365,1000.006531 1195.340576,988.895081 1203.194824,977.954590 
	C1278.701416,872.779236 1354.248047,767.632629 1429.783203,662.477844 
	C1520.581909,536.074402 1611.381714,409.671661 1702.180176,283.267853 
	C1754.870239,209.916107 1807.563477,136.566589 1860.218872,63.189945 
	C1861.645752,61.201538 1862.653320,58.912151 1863.625244,56.342751 
	C1863.394043,55.922451 1863.426147,55.963264 1863.825439,56.062210 
	C1864.485474,55.744038 1864.746094,55.326916 1865.006836,54.909821 
	C1865.006836,54.909843 1865.010376,55.009632 1865.328369,54.929359 
	C1865.769409,54.375549 1865.892456,53.902016 1866.015625,53.428490 
	C1869.742432,49.631039 1873.469238,45.833588 1877.524658,41.978470 
	C1876.000244,44.862709 1874.297119,47.912243 1872.272827,50.731159 
	C1763.628784,202.023865 1654.952026,353.292938 1546.291748,504.573822 
	C1429.175049,667.627686 1312.071289,830.690857 1194.956177,993.745789 
	C1194.081909,994.963074 1193.127808,996.122925 1192.109375,997.628296 
	C1188.232788,1002.282593 1184.457642,1006.618286 1180.340088,1010.996338 
z"/>
<path fill="#43383A" opacity="1.000000" stroke="none" 
	d="
M1144.219727,1001.097656 
	C1143.046387,999.015930 1142.451172,996.907349 1141.252930,995.229431 
	C1048.821045,865.789185 956.340271,736.383850 863.866394,606.973633 
	C785.917664,497.890289 707.972900,388.804199 629.997070,279.374451 
	C633.495789,282.043549 637.023987,285.057495 640.544495,288.517487 
	C640.721680,289.317505 640.906555,289.671417 641.091370,290.025360 
	C641.091370,290.025360 640.983276,290.012604 641.044006,290.254028 
	C641.435791,290.656555 641.766785,290.817688 642.097839,290.978821 
	C642.097839,290.978821 642.021790,290.978058 642.028442,291.258423 
	C642.388000,291.684875 642.740845,291.830994 643.093750,291.977142 
	C643.093750,291.977142 643.013123,291.986908 643.069702,292.341492 
	C643.607544,292.799225 644.088806,292.902405 644.570129,293.005615 
	C644.570129,293.005585 644.633606,292.986023 644.631836,292.962891 
	C645.580627,295.242218 646.132629,297.828491 647.540466,299.805298 
	C677.499146,341.870850 707.564087,383.860596 737.587830,425.879791 
	C822.621826,544.887817 907.645691,663.903015 992.675354,782.914185 
	C1045.842896,857.329895 1099.014404,931.742676 1152.177734,1006.161438 
	C1153.144287,1007.514526 1154.028809,1008.926147 1154.996582,1010.658691 
	C1151.532959,1007.761902 1148.024658,1004.516846 1144.219727,1001.097656 
z"/>
<path fill="#A9ABAE" opacity="1.000000" stroke="none" 
	d="
M2697.172852,854.827148 
	C2697.344971,855.424133 2697.517090,856.021057 2697.689453,856.617981 
	C2697.366943,856.420959 2697.044189,856.223938 2696.753906,855.610168 
	C2696.915039,855.071350 2697.043945,854.949280 2697.172852,854.827148 
z"/>
<path fill="#A8AAAD" opacity="1.000000" stroke="none" 
	d="
M104.189880,988.802368 
	C104.634155,988.533508 105.025131,988.632935 105.416107,988.732361 
	C104.989601,988.878479 104.563087,989.024597 104.189880,988.802368 
z"/>
<path fill="#43383A" opacity="1.000000" stroke="none" 
	d="
M1178.970459,1012.692261 
	C1178.949951,1012.283386 1179.215332,1011.754211 1179.757568,1011.105713 
	C1179.775269,1011.514893 1179.515869,1012.043457 1178.970459,1012.692261 
z"/>
<path fill="#43383A" opacity="1.000000" stroke="none" 
	d="
M1155.936279,1012.338928 
	C1156.302246,1012.453979 1156.706909,1012.867310 1157.173828,1013.573242 
	C1156.815674,1013.456299 1156.395264,1013.046753 1155.936279,1012.338928 
z"/>
<path fill="#43383A" opacity="1.000000" stroke="none" 
	d="
M1178.015625,1013.776855 
	C1177.935547,1013.574585 1178.098755,1013.248169 1178.524170,1012.819824 
	C1178.610596,1013.029541 1178.434692,1013.341187 1178.015625,1013.776855 
z"/>
<path fill="#721316" opacity="1.000000" stroke="none" 
	d="
M1775.556030,639.005188 
	C1775.737061,639.038086 1775.832275,639.225098 1775.935791,639.726685 
	C1775.786133,639.747314 1775.628174,639.453308 1775.556030,639.005188 
z"/>
<path fill="#EC3237" opacity="1.000000" stroke="none" 
	d="
M1865.769775,53.653187 
	C1865.892456,53.902016 1865.769409,54.375549 1865.278442,54.931370 
	C1865.114990,54.635067 1865.319336,54.256477 1865.769775,53.653187 
z"/>
<path fill="#EC3237" opacity="1.000000" stroke="none" 
	d="
M1864.685791,54.989925 
	C1864.746094,55.326916 1864.485474,55.744038 1863.827881,56.083458 
	C1863.742310,55.693855 1864.053589,55.381954 1864.685791,54.989925 
z"/>
<path fill="#EC3237" opacity="1.000000" stroke="none" 
	d="
M644.346741,292.754211 
	C644.088806,292.902405 643.607544,292.799225 643.065063,292.301147 
	C643.377075,292.105072 643.750183,292.303925 644.346741,292.754211 
z"/>
<path fill="#EC3237" opacity="1.000000" stroke="none" 
	d="
M643.082031,291.657837 
	C642.740845,291.830994 642.388000,291.684875 642.029297,291.220398 
	C642.372437,291.047516 642.721375,291.192993 643.082031,291.657837 
z"/>
<path fill="#721316" opacity="1.000000" stroke="none" 
	d="
M609.901306,756.869202 
	C609.790405,756.998657 609.589294,756.982544 609.124756,756.817383 
	C609.177856,756.686707 609.494446,756.705200 609.901306,756.869202 
z"/>
<path fill="#EC3237" opacity="1.000000" stroke="none" 
	d="
M641.148926,289.655212 
	C640.906555,289.671417 640.721680,289.317505 640.706116,288.788269 
	C640.985779,288.837036 641.096130,289.061035 641.148926,289.655212 
z"/>
<path fill="#43383A" opacity="1.000000" stroke="none" 
	d="
M1157.246826,1014.023193 
	C1157.432373,1013.986084 1157.703613,1014.186523 1158.035156,1014.640320 
	C1157.841187,1014.682678 1157.586792,1014.471680 1157.246826,1014.023193 
z"/>
<path fill="#4F090C" opacity="1.000000" stroke="none" 
	d="
M634.554993,827.052124 
	C634.735168,827.097778 634.803772,827.277466 634.872070,827.745667 
	C634.729004,827.751526 634.586243,827.468872 634.554993,827.052124 
z"/>
<path fill="#43383A" opacity="1.000000" stroke="none" 
	d="
M1155.047607,1011.216736 
	C1155.280029,1011.155457 1155.560303,1011.354248 1155.883301,1011.818359 
	C1155.649170,1011.881470 1155.372192,1011.679138 1155.047607,1011.216736 
z"/>
<path fill="#EC3237" opacity="1.000000" stroke="none" 
	d="
M642.124207,290.641052 
	C641.766785,290.817688 641.435791,290.656555 641.050049,290.199951 
	C641.380493,290.037415 641.765503,290.170349 642.124207,290.641052 
z"/>
<path fill="#A9ABAE" opacity="1.000000" stroke="none" 
	d="
M2695.990723,854.018799 
	C2696.468018,853.989197 2696.754639,854.158447 2697.107178,854.577393 
	C2697.043945,854.949280 2696.915039,855.071350 2696.585449,855.368896 
	C2696.132568,855.386902 2695.907227,855.197876 2695.572021,854.803467 
	C2695.557129,854.492432 2695.678711,854.355103 2695.990723,854.018799 
z"/>
<path fill="#981C20" opacity="1.000000" stroke="none" 
	d="
M608.101135,829.473755 
	C608.041565,829.168030 608.282349,829.010254 608.826416,829.007446 
	C608.866028,829.287109 608.623291,829.440247 608.101135,829.473755 
z"/>
<path fill="#000000" opacity="1.000000" stroke="none" 
	d="
M1727.061523,1072.758301 
	C1732.544312,1075.290283 1737.823730,1077.394531 1742.726196,1080.165771 
	C1753.496826,1086.254150 1761.053955,1095.315186 1766.218750,1106.526733 
	C1769.074341,1112.725098 1772.792725,1118.562012 1775.225830,1124.905640 
	C1776.709229,1128.773315 1776.880737,1133.299438 1776.827759,1137.519653 
	C1776.808350,1139.062744 1774.622437,1140.811890 1773.073975,1142.015625 
	C1772.142090,1142.739746 1770.540039,1142.761841 1769.228149,1142.811890 
	C1756.260254,1143.305664 1743.279419,1143.541748 1730.322998,1144.235352 
	C1710.082886,1145.318970 1689.855347,1146.651733 1669.629272,1147.980347 
	C1661.185181,1148.534790 1652.768066,1149.526855 1644.320557,1149.989136 
	C1637.700439,1150.351440 1635.339355,1147.635864 1637.746216,1141.469849 
	C1643.294678,1127.256470 1648.393677,1112.697632 1655.679688,1099.375244 
	C1665.004761,1082.324219 1681.614502,1074.778687 1700.090210,1071.138428 
	C1709.065674,1069.369873 1717.964844,1069.589111 1727.061523,1072.758301 
z"/>
</svg>